<svg viewBox="0 0 12 12" fill="white"
  xmlns="http://www.w3.org/2000/svg">
  <path d="M4 8.25C3.90111 8.25 3.80444 8.27932 3.72221 8.33426C3.63999 8.38921 3.5759 8.4673 3.53806 8.55866C3.50022 8.65002 3.49031 8.75056 3.50961 8.84755C3.5289 8.94454 3.57652 9.03363 3.64645 9.10355C3.71637 9.17348 3.80546 9.2211 3.90245 9.24039C3.99945 9.25969 4.09998 9.24978 4.19134 9.21194C4.2827 9.1741 4.36079 9.11001 4.41573 9.02779C4.47068 8.94556 4.5 8.84889 4.5 8.75C4.5 8.61739 4.44732 8.49021 4.35355 8.39645C4.25979 8.30268 4.13261 8.25 4 8.25V8.25ZM6 1C4 1 2 1.685 2 3V9C2 10.315 4 11 6 11C8 11 10 10.315 10 9V3C10 1.685 8 1 6 1ZM9 9C9 9.355 7.86 10 6 10C4.14 10 3 9.355 3 9V7.365C3.93603 7.80998 4.96395 8.02755 6 8C7.03605 8.02755 8.06397 7.80998 9 7.365V9ZM9 6C9 6.355 7.86 7 6 7C4.14 7 3 6.355 3 6V4.365C3.93603 4.80998 4.96395 5.02755 6 5C7.03605 5.02755 8.06397 4.80998 9 4.365V6ZM6 4C4.14 4 3 3.355 3 3C3 2.645 4.14 2 6 2C7.86 2 9 2.645 9 3C9 3.355 7.86 4 6 4ZM4 5.25C3.90111 5.25 3.80444 5.27932 3.72221 5.33427C3.63999 5.38921 3.5759 5.4673 3.53806 5.55866C3.50022 5.65002 3.49031 5.75055 3.50961 5.84755C3.5289 5.94454 3.57652 6.03363 3.64645 6.10355C3.71637 6.17348 3.80546 6.2211 3.90245 6.24039C3.99945 6.25969 4.09998 6.24978 4.19134 6.21194C4.2827 6.1741 4.36079 6.11001 4.41573 6.02779C4.47068 5.94556 4.5 5.84889 4.5 5.75C4.5 5.61739 4.44732 5.49021 4.35355 5.39645C4.25979 5.30268 4.13261 5.25 4 5.25V5.25Z" fill="white" />
</svg>