<svg viewBox="0 0 12 12" fill="white"
  xmlns="http://www.w3.org/2000/svg">
  <g clip-path="url(#clip0_202_914)">
    <path d="M11.496 7.88914C11.482 7.67703 11.4041 7.47519 11.2734 7.31314C11.1428 7.15109 10.9664 7.03734 10.77 6.98854C10.5651 6.93578 10.3498 6.94982 10.1526 7.0288L8.90382 7.48228L8.45337 7.64545C8.43133 7.40711 8.33437 7.18336 8.17787 7.00973C8.06718 6.89176 7.93328 6.80083 7.78561 6.74334C7.63793 6.68586 7.48009 6.66322 7.3232 6.67704C7.01754 6.69399 6.70383 6.67704 6.39816 6.67704H6.17092C6.12311 6.67592 6.07624 6.66285 6.03417 6.63889L5.63198 6.40367C5.43088 6.27865 5.20968 6.14938 4.99249 6.03284C4.80257 5.93084 4.59922 5.85941 4.3892 5.82093C4.23414 5.79678 4.07724 5.78826 3.92064 5.7955H2.82869C2.74821 5.64999 2.62934 5.53226 2.48653 5.45664C2.34372 5.38102 2.18313 5.35077 2.0243 5.36957C1.70456 5.36957 1.36269 5.36957 0.950444 5.36957C0.863185 5.36355 0.776069 5.38338 0.69895 5.42682C0.621831 5.47026 0.557788 5.53558 0.514064 5.61538C0.499984 5.64273 0.492394 5.67327 0.491943 5.70438V9.78571C0.491964 9.81367 0.49816 9.84124 0.510041 9.86624C0.547903 9.94947 0.609072 10.0185 0.685302 10.0639C0.761531 10.1094 0.849155 10.1292 0.936366 10.1205C1.31845 10.1205 1.6945 10.1205 2.05446 10.1205C2.20141 10.1304 2.34815 10.0981 2.47914 10.0272C2.61012 9.95636 2.72048 9.84948 2.79852 9.71791C2.98724 9.74679 3.16927 9.81216 3.33545 9.91073C3.67128 10.1226 4.00912 10.3345 4.34093 10.5465C4.79295 10.8419 5.31325 11.001 5.84514 11.0063C6.24915 11.0027 6.64816 10.9118 7.01753 10.7393C7.52966 10.5034 8.04112 10.266 8.5519 10.0273L9.76854 9.46361C10.1587 9.28349 10.5468 9.10337 10.9349 8.91901C11.119 8.8309 11.2722 8.68409 11.3729 8.49931C11.4735 8.31453 11.5166 8.1011 11.496 7.88914ZM7.68719 7.82769C7.66925 7.88116 7.63511 7.92694 7.59005 7.95795C7.54499 7.98897 7.49151 8.00351 7.43783 7.99933H5.40876C5.34778 7.99729 5.28684 8.00443 5.22777 8.02053C5.14338 8.04691 5.07059 8.10397 5.02236 8.18156C4.97412 8.25916 4.95356 8.35227 4.96434 8.44434C4.97428 8.53437 5.01292 8.61817 5.07392 8.68206C5.13492 8.74596 5.21468 8.78617 5.30017 8.79611C5.33026 8.79928 5.36057 8.79928 5.39066 8.79611H5.92759C6.32979 8.79611 6.74807 8.79611 7.1583 8.79611C7.45509 8.80113 7.75023 8.74869 8.02905 8.64141C8.64642 8.4062 9.28189 8.17734 9.89524 7.95907L10.4221 7.77048C10.4563 7.75447 10.4933 7.7462 10.5307 7.7462C10.5681 7.7462 10.6051 7.75447 10.6393 7.77048C10.6643 7.78676 10.6858 7.80836 10.7024 7.8339C10.719 7.85945 10.7304 7.88837 10.7358 7.91881C10.7469 7.97345 10.7385 8.03049 10.7121 8.07899C10.6858 8.12748 10.6434 8.16402 10.593 8.18158L9.38645 8.74737L8.34679 9.23051C7.7998 9.4848 7.25282 9.7391 6.70382 9.98915C6.39323 10.1417 6.05098 10.2087 5.70912 10.1838C5.36725 10.159 5.03696 10.0432 4.74916 9.84717L4.56617 9.73485C4.37714 9.61831 4.18207 9.49752 3.99706 9.37037C3.67884 9.13843 3.31652 8.98224 2.93527 8.91265V6.6071H4.1519C4.33078 6.60636 4.50678 6.65455 4.66269 6.74696L5.14935 7.03727C5.32229 7.13899 5.49523 7.24918 5.66616 7.34454C5.82229 7.43851 5.99916 7.48748 6.17896 7.48652C6.60395 7.48652 7.0296 7.48652 7.45593 7.48652C7.49532 7.48806 7.53386 7.49896 7.56868 7.5184C7.60351 7.53785 7.63371 7.56535 7.65703 7.59883C7.67885 7.63176 7.69296 7.66966 7.6982 7.70944C7.70344 7.74922 7.69967 7.78974 7.68719 7.82769ZM2.16507 6.2511V9.23264C2.17045 9.25632 2.17045 9.281 2.16507 9.30468C2.16507 9.30468 2.14898 9.30468 2.10072 9.30468C1.87147 9.30468 1.64222 9.30468 1.40894 9.30468H1.2722V6.16846H2.0967C2.11995 6.16659 2.14331 6.17021 2.16507 6.17905C2.17078 6.20341 2.17078 6.22886 2.16507 6.25322V6.2511Z" fill="white" />
    <path d="M5.17351 4.83354C5.52945 5.16624 5.88941 5.49257 6.24938 5.81891L6.56711 6.10711C6.6438 6.186 6.74557 6.23206 6.85267 6.23637H6.86473C6.97546 6.23537 7.08148 6.18901 7.16034 6.10711L7.48411 5.81467C7.84206 5.49046 8.20001 5.16412 8.55394 4.83354C8.92265 4.50599 9.25219 4.13241 9.5353 3.72103C9.7229 3.45718 9.84948 3.15084 9.90499 2.82638C9.9605 2.50192 9.9434 2.16828 9.85504 1.85201C9.7798 1.52449 9.61675 1.2267 9.38535 0.994121C9.15394 0.761547 8.86394 0.604008 8.54992 0.540301C8.24945 0.469727 7.93603 0.492187 7.64739 0.604976C7.35875 0.717765 7.1072 0.916074 6.92305 1.17602C6.90294 1.20357 6.88283 1.229 6.86473 1.25655L6.8044 1.17602C6.62024 0.916074 6.3687 0.717765 6.08006 0.604976C5.79142 0.492187 5.478 0.469727 5.17753 0.540301C4.86357 0.603636 4.57363 0.761086 4.34249 0.993753C4.11135 1.22642 3.94883 1.52442 3.87442 1.85201C3.78483 2.168 3.7669 2.50176 3.82209 2.82639C3.87728 3.15102 4.00403 3.45746 4.19215 3.72103C4.4759 4.13186 4.80537 4.50536 5.17351 4.83354ZM4.83968 1.61467C4.92618 1.51026 5.03373 1.42753 5.15446 1.37254C5.27519 1.31754 5.40605 1.29167 5.53749 1.29681C5.67069 1.30361 5.80079 1.34155 5.91835 1.40789C6.03591 1.47423 6.138 1.5673 6.2172 1.68036C6.31312 1.82328 6.39403 1.97675 6.45851 2.13808L6.50678 2.24192C6.53248 2.31924 6.5784 2.38732 6.63925 2.43831C6.70009 2.48931 6.77338 2.52113 6.85065 2.53011H6.87881C6.95665 2.5214 7.03057 2.48974 7.09211 2.43877C7.15364 2.38779 7.20029 2.31957 7.2267 2.24192L7.27296 2.13808C7.33744 1.97675 7.41834 1.82328 7.51427 1.68036C7.59377 1.56763 7.69592 1.47479 7.81342 1.40849C7.93092 1.34218 8.06087 1.30405 8.19398 1.29681C8.32566 1.2921 8.4567 1.31816 8.57769 1.37312C8.69868 1.42808 8.80663 1.51056 8.8938 1.61467C9.01222 1.75333 9.09825 1.91924 9.14503 2.09915C9.19182 2.27906 9.19806 2.468 9.16327 2.6509C9.10742 2.99565 8.94646 3.31182 8.70477 3.55151C8.33274 3.94777 7.92853 4.33768 7.57259 4.68309C7.39764 4.8505 7.21866 5.00943 7.02963 5.17895L6.86875 5.32305L6.70586 5.17895C6.51683 5.00943 6.33785 4.8505 6.1629 4.68309C5.80696 4.33768 5.40275 3.94777 5.03274 3.55151C4.78983 3.3125 4.62806 2.99612 4.57223 2.6509C4.53685 2.46817 4.54261 2.27924 4.58906 2.09928C4.6355 1.91932 4.72135 1.75335 4.83968 1.61467Z" fill="white" />
  </g>
  <defs>
    <clip-path id="clip0_202_914">
      <rect width="11" height="10.5" fill="white" transform="translate(0.5 0.5)" />
    </clip-path>
  </defs>
</svg>