  <svg
    viewBox="0 0 12 12"
    fill="white"
    xmlns="http://www.w3.org/2000/svg"
  >
    <path
      d="M10.66 4.775L9.715 4.46L10.16 3.57C10.2051 3.47684 10.2202 3.37198 10.2032 3.26989C10.1862 3.16779 10.1379 3.07349 10.065 3L9 1.935C8.92612 1.86104 8.83091 1.81211 8.72777 1.79506C8.62463 1.77802 8.51875 1.79374 8.425 1.84L7.535 2.285L7.22 1.34C7.18673 1.2415 7.12359 1.15581 7.03935 1.09488C6.95511 1.03394 6.85397 1.00077 6.75 1H5.25C5.14518 0.999731 5.04292 1.03241 4.95769 1.09342C4.87245 1.15443 4.80854 1.24069 4.775 1.34L4.46 2.285L3.57 1.84C3.47684 1.79489 3.37198 1.7798 3.26989 1.79682C3.16779 1.81384 3.07349 1.86212 3 1.935L1.935 3C1.86104 3.07388 1.81211 3.16909 1.79506 3.27223C1.77802 3.37537 1.79374 3.48126 1.84 3.575L2.285 4.465L1.34 4.78C1.2415 4.81327 1.15581 4.87642 1.09488 4.96065C1.03394 5.04489 1.00077 5.14603 1 5.25V6.75C0.999731 6.85482 1.03241 6.95708 1.09342 7.04232C1.15443 7.12755 1.24069 7.19146 1.34 7.225L2.285 7.54L1.84 8.43C1.79489 8.52316 1.7798 8.62802 1.79682 8.73012C1.81384 8.83221 1.86212 8.92651 1.935 9L3 10.065C3.07388 10.139 3.16909 10.1879 3.27223 10.2049C3.37537 10.222 3.48126 10.2063 3.575 10.16L4.465 9.715L4.78 10.66C4.81354 10.7593 4.87745 10.8456 4.96269 10.9066C5.04792 10.9676 5.15018 11.0003 5.255 11H6.755C6.85982 11.0003 6.96208 10.9676 7.04732 10.9066C7.13255 10.8456 7.19646 10.7593 7.23 10.66L7.545 9.715L8.435 10.16C8.52756 10.204 8.6314 10.2184 8.73246 10.2015C8.83351 10.1845 8.92691 10.1368 9 10.065L10.065 9C10.139 8.92612 10.1879 8.83091 10.2049 8.72777C10.222 8.62463 10.2063 8.51875 10.16 8.425L9.715 7.535L10.66 7.22C10.7585 7.18673 10.8442 7.12359 10.9051 7.03935C10.9661 6.95511 10.9992 6.85397 11 6.75V5.25C11.0003 5.14518 10.9676 5.04292 10.9066 4.95769C10.8456 4.87245 10.7593 4.80854 10.66 4.775ZM10 6.39L9.4 6.59C9.26203 6.63476 9.13545 6.70899 9.02903 6.80755C8.92261 6.90612 8.83891 7.02665 8.78373 7.16079C8.72855 7.29493 8.70322 7.43948 8.70948 7.58439C8.71574 7.7293 8.75345 7.87112 8.82 8L9.105 8.57L8.555 9.12L8 8.82C7.87178 8.75612 7.73133 8.72053 7.58816 8.71565C7.44499 8.71077 7.30244 8.7367 7.17016 8.7917C7.03788 8.8467 6.91897 8.92947 6.82146 9.03442C6.72396 9.13937 6.65014 9.26404 6.605 9.4L6.405 10H5.61L5.41 9.4C5.36525 9.26203 5.29101 9.13545 5.19245 9.02903C5.09389 8.92261 4.97335 8.83891 4.83921 8.78373C4.70507 8.72855 4.56053 8.70322 4.41561 8.70948C4.2707 8.71574 4.12888 8.75345 4 8.82L3.43 9.105L2.88 8.555L3.18 8C3.24655 7.87112 3.28426 7.7293 3.29052 7.58439C3.29679 7.43948 3.27145 7.29493 3.21627 7.16079C3.16109 7.02665 3.07739 6.90612 2.97097 6.80755C2.86456 6.70899 2.73797 6.63476 2.6 6.59L2 6.39V5.61L2.6 5.41C2.73797 5.36525 2.86456 5.29101 2.97097 5.19245C3.07739 5.09389 3.16109 4.97335 3.21627 4.83921C3.27145 4.70507 3.29679 4.56053 3.29052 4.41561C3.28426 4.2707 3.24655 4.12888 3.18 4L2.895 3.445L3.445 2.895L4 3.18C4.12888 3.24655 4.2707 3.28426 4.41561 3.29052C4.56053 3.29679 4.70507 3.27145 4.83921 3.21627C4.97335 3.16109 5.09389 3.07739 5.19245 2.97097C5.29101 2.86456 5.36525 2.73797 5.41 2.6L5.61 2H6.39L6.59 2.6C6.63476 2.73797 6.70899 2.86456 6.80755 2.97097C6.90612 3.07739 7.02665 3.16109 7.16079 3.21627C7.29493 3.27145 7.43948 3.29679 7.58439 3.29052C7.7293 3.28426 7.87112 3.24655 8 3.18L8.57 2.895L9.12 3.445L8.82 4C8.75612 4.12822 8.72053 4.26867 8.71565 4.41185C8.71077 4.55502 8.7367 4.69757 8.7917 4.82984C8.8467 4.96212 8.92947 5.08104 9.03442 5.17854C9.13937 5.27605 9.26404 5.34987 9.4 5.395L10 5.595V6.39ZM6 4C5.60444 4 5.21776 4.1173 4.88886 4.33706C4.55996 4.55683 4.30362 4.86918 4.15224 5.23463C4.00087 5.60009 3.96126 6.00222 4.03843 6.39018C4.1156 6.77814 4.30608 7.13451 4.58579 7.41422C4.86549 7.69392 5.22186 7.8844 5.60982 7.96157C5.99778 8.03874 6.39992 7.99914 6.76537 7.84776C7.13082 7.69639 7.44318 7.44004 7.66294 7.11114C7.8827 6.78224 8 6.39556 8 6C8 5.46957 7.78929 4.96086 7.41422 4.58579C7.03914 4.21072 6.53043 4 6 4ZM6 7C5.80222 7 5.60888 6.94135 5.44443 6.83147C5.27998 6.72159 5.15181 6.56541 5.07612 6.38268C5.00043 6.19996 4.98063 5.99889 5.01922 5.80491C5.0578 5.61093 5.15304 5.43275 5.29289 5.29289C5.43275 5.15304 5.61093 5.0578 5.80491 5.01922C5.99889 4.98063 6.19996 5.00043 6.38268 5.07612C6.56541 5.15181 6.72159 5.27998 6.83147 5.44443C6.94135 5.60888 7 5.80222 7 6C7 6.26522 6.89464 6.51957 6.70711 6.70711C6.51957 6.89464 6.26522 7 6 7Z"
      fill="white"
    />
  </svg>
